<?xml version="1.0" encoding="UTF-8" standalone="no"?><svg xmlns="http://www.w3.org/2000/svg" viewBox="-4 -4 24 24"><style>path {fill:#4286f4;}</style><g><path d="m 4.87875,16 c 0.553,0 1,-0.448 1,-1 0,-0.552 -0.447,-1 -1,-1 h -1.465 l 3.293,-3.293 c 0.391,-0.391 0.391,-1.023 0,-1.414 C 6.51175,9.098 6.25575,9 5.99975,9 c -0.256,0 -0.512,0.098 -0.707,0.293 l -3.414,3.414 V 11 c 0,-0.552 -0.447,-1 -1,-1 -0.553,0 -0.879,0.448 -0.879,1 v 5 z"/><path d="M 3.1780031,7.0961372 C 3.7286584,7.0576316 4.1443163,6.579472 4.1058106,6.0288167 L 3.9662977,4.0336885 5.9614258,3.8941756 C 6.5130787,3.8556002 6.9277389,3.3775105 6.8892334,2.8268551 6.8507278,2.2761997 6.3735658,1.8604722 5.8219129,1.8990475 L 1.8326542,2.1780037 2.1106826,6.1683296 c 0.038506,0.5506553 0.5156676,0.9663829 1.0673205,0.9278076 z"/><path d="m 13.173162,9.110767 c -0.551652,-0.038575 -1.028815,0.3771522 -1.06732,0.927808 l -0.139514,1.995127 -1.9951282,-0.139514 c -0.5516529,-0.03857 -1.028815,0.377153 -1.0673205,0.927808 -0.038505,0.550655 0.3761547,1.028745 0.9278075,1.067321 l 3.9902562,0.279026 0.279026,-3.990256 c 0.03851,-0.5506548 -0.376154,-1.0287447 -0.927807,-1.06732 z"/><path d="m 10.70725,6.7072496 3.293,-3.293 v 1.586 c 0,0.552 0.447,1 1,1 0.553,0 1,-0.448 1,-1 V 2.4944035e-4 h -5 c -0.552,0 -1,0.44799999965 -1,1.00000015965 0,0.552 0.447,1 1,1 h 1.586 l -3.2929999,3.292 c -0.391,0.391 -0.391,1.023 0,1.414 0.391,0.391 1.0229999,0.392 1.4139999,0.001 z"/></g></svg>